

<svg width="90" height="15" viewBox="0 0 90 15" fill="none" xmlns="http://www.w3.org/2000/svg">
<path d="M28.9672 2.49189C29.4705 2.76872 29.8732 3.1462 30.15 3.67469C30.4268 4.20318 30.5778 4.83233 30.5778 5.56214V10.3689H28.8917V5.8138C28.8917 5.08399 28.7155 4.53034 28.338 4.12768C27.9606 3.72502 27.4824 3.54886 26.8533 3.54886C26.2241 3.54886 25.7208 3.75019 25.3433 4.12768C24.9658 4.50517 24.7896 5.08399 24.7896 5.8138V10.3689H23.1035V2.21506H24.7896V3.14621C25.0665 2.81905 25.4188 2.54222 25.8466 2.36606C26.2744 2.1899 26.7274 2.08923 27.2056 2.08923C27.8851 2.08923 28.4639 2.21506 28.9672 2.49189Z" fill="white"/>
<path d="M40.1661 6.92107H33.9249C33.9753 7.57538 34.2269 8.10387 34.6547 8.48136C35.0826 8.88402 35.6111 9.08534 36.2654 9.08534C37.1713 9.08534 37.8257 8.70785 38.2032 7.95287H40.0151C39.7634 8.70785 39.3105 9.31184 38.6813 9.78999C38.027 10.2681 37.2217 10.5198 36.2654 10.5198C35.4852 10.5198 34.7806 10.3436 34.1766 9.99132C33.5474 9.639 33.0693 9.13568 32.717 8.50653C32.3646 7.87737 32.1885 7.12239 32.1885 6.29191C32.1885 5.46144 32.3646 4.70646 32.6918 4.07731C33.0441 3.44816 33.5223 2.94484 34.1263 2.59251C34.7554 2.24019 35.4601 2.06403 36.2402 2.06403C37.0204 2.06403 37.6998 2.24019 38.3038 2.56735C38.9078 2.8945 39.386 3.37266 39.7131 3.97664C40.0403 4.58063 40.2164 5.28527 40.2164 6.06542C40.2164 6.39258 40.1913 6.66941 40.1661 6.92107ZM38.4548 5.5621C38.4548 4.93295 38.2283 4.42963 37.8005 4.07731C37.3727 3.69982 36.819 3.52365 36.1899 3.52365C35.6111 3.52365 35.1077 3.69982 34.7051 4.07731C34.3024 4.4548 34.0508 4.95812 33.9753 5.58727L38.4548 5.5621Z" fill="white"/>
<path d="M43.3372 9.99132C42.7081 9.639 42.2299 9.13568 41.8776 8.50653C41.5253 7.87737 41.3491 7.12239 41.3491 6.29191C41.3491 5.46144 41.5253 4.73162 41.9028 4.07731C42.2803 3.44816 42.7584 2.94484 43.3876 2.59251C44.0167 2.24019 44.7214 2.06403 45.5015 2.06403C46.2817 2.06403 46.9863 2.24019 47.6155 2.59251C48.2446 2.94484 48.7479 3.42299 49.1003 4.07731C49.4777 4.73162 49.6539 5.46144 49.6539 6.29191C49.6539 7.12239 49.4777 7.85221 49.1003 8.50653C48.7228 9.16084 48.2194 9.639 47.5651 9.99132C46.9108 10.3436 46.2062 10.5198 45.426 10.5198C44.6459 10.5198 43.9412 10.3436 43.3372 9.99132ZM46.634 8.73302C47.0115 8.53169 47.3135 8.20453 47.5651 7.80188C47.8168 7.39922 47.9175 6.8959 47.9175 6.29191C47.9175 5.68793 47.7916 5.20978 47.5651 4.78195C47.3386 4.3793 47.0366 4.05214 46.6592 3.85081C46.2817 3.64948 45.879 3.54882 45.4512 3.54882C45.0234 3.54882 44.6207 3.64948 44.2432 3.85081C43.8657 4.05214 43.5889 4.3793 43.3624 4.78195C43.1359 5.18461 43.0352 5.68793 43.0352 6.29191C43.0352 7.17273 43.2617 7.85221 43.7147 8.33036C44.1677 8.80852 44.7214 9.06018 45.4009 9.06018C45.8538 9.03501 46.2565 8.93435 46.634 8.73302Z" fill="white"/>
<path d="M52.547 10.1676C52.0436 9.94113 51.641 9.61397 51.339 9.21132C51.037 8.80866 50.886 8.35567 50.8608 7.87752H52.5973C52.6225 8.22984 52.7986 8.50667 53.1006 8.73316C53.4026 8.95966 53.7801 9.08549 54.2331 9.08549C54.7112 9.08549 55.0636 8.98482 55.3404 8.80866C55.5921 8.6325 55.743 8.38084 55.743 8.10401C55.743 7.80202 55.5921 7.57553 55.3152 7.42453C55.0132 7.27353 54.5602 7.12254 53.9311 6.94638C53.3271 6.77021 52.8238 6.61922 52.4463 6.46822C52.0688 6.31723 51.7165 6.06557 51.4397 5.73841C51.1628 5.41125 51.0118 4.98343 51.0118 4.45494C51.0118 4.02712 51.1377 3.62446 51.3893 3.27214C51.641 2.91981 52.0185 2.61782 52.4966 2.41649C52.9748 2.21517 53.5284 2.1145 54.1576 2.1145C55.0887 2.1145 55.8437 2.341 56.3974 2.81915C56.9762 3.29731 57.2782 3.92646 57.3033 4.73177H55.6172C55.592 4.35428 55.4411 4.07745 55.1642 3.85096C54.8874 3.62446 54.5351 3.5238 54.0821 3.5238C53.6291 3.5238 53.3019 3.5993 53.0503 3.77546C52.8238 3.95162 52.698 4.17811 52.698 4.42977C52.698 4.65627 52.7735 4.83243 52.9245 4.98343C53.0755 5.13442 53.2768 5.23509 53.5033 5.33575C53.7298 5.41125 54.0569 5.53708 54.5099 5.66291C55.1139 5.81391 55.5921 5.99007 55.9695 6.14106C56.347 6.29206 56.6742 6.54372 56.951 6.87088C57.2278 7.19804 57.3788 7.60069 57.3788 8.12918C57.3788 8.58217 57.253 9.00999 57.0013 9.36231C56.7497 9.7398 56.3722 10.0166 55.9192 10.218C55.4662 10.4193 54.8874 10.52 54.2583 10.52C53.6291 10.52 53.0755 10.3941 52.547 10.1676Z" fill="white"/>
<path d="M70.189 2.21521L67.6472 10.369H65.8604L64.2246 4.32916L62.5888 10.369H60.802L58.2603 2.21521H59.9715L61.6828 8.78354L63.4193 2.21521H65.1809L66.8419 8.75837L68.528 2.21521H70.189Z" fill="white"/>
<path d="M71.3969 4.07731C71.7492 3.44816 72.2022 2.94484 72.781 2.59251C73.3598 2.24019 74.0141 2.06403 74.7188 2.06403C75.3479 2.06403 75.9267 2.18986 76.4049 2.44152C76.883 2.69318 77.2605 2.99517 77.5625 3.37266V2.18986H79.2738V10.3436H77.5625V9.16084C77.2857 9.53833 76.883 9.86549 76.4049 10.1172C75.9016 10.3688 75.3479 10.4946 74.7188 10.4946C74.0141 10.4946 73.385 10.3185 72.8062 9.96615C72.2273 9.61383 71.7743 9.11051 71.422 8.45619C71.0697 7.80188 70.9187 7.07206 70.9187 6.26675C70.8935 5.43627 71.0445 4.70646 71.3969 4.07731ZM77.2102 4.83229C76.9837 4.42963 76.6817 4.10247 76.3042 3.87598C75.9267 3.64948 75.5241 3.54882 75.0963 3.54882C74.6684 3.54882 74.2658 3.64948 73.8883 3.87598C73.5108 4.07731 73.2088 4.40446 72.9823 4.80712C72.7558 5.20978 72.63 5.7131 72.63 6.26675C72.63 6.8204 72.7558 7.32372 72.9823 7.75155C73.2088 8.17937 73.5108 8.50653 73.8883 8.73302C74.2658 8.95951 74.6684 9.06018 75.0963 9.06018C75.5241 9.06018 75.9267 8.95951 76.3042 8.73302C76.6817 8.50653 76.9837 8.20453 77.2102 7.77671C77.4367 7.34889 77.5625 6.87073 77.5625 6.29192C77.5625 5.7131 77.4367 5.23494 77.2102 4.83229Z" fill="white"/>
<path d="M84.3574 2.46672C84.8607 2.21506 85.4144 2.08923 86.0436 2.08923C86.7482 2.08923 87.4025 2.2654 87.9813 2.61772C88.5602 2.97004 89.0383 3.4482 89.3655 4.10251C89.6926 4.73166 89.8688 5.46148 89.8688 6.29196C89.8688 7.12244 89.6926 7.85225 89.3655 8.4814C89.0383 9.13572 88.5602 9.63904 87.9813 9.99136C87.4025 10.3437 86.7482 10.5198 86.0436 10.5198C85.4144 10.5198 84.8608 10.394 84.3826 10.1424C83.9044 9.8907 83.5018 9.5887 83.1998 9.21121V14.2696H81.5137V2.21506H83.1998V3.42303C83.4515 3.04554 83.8541 2.71838 84.3574 2.46672ZM87.78 4.80716C87.5535 4.40451 87.2515 4.07735 86.874 3.87602C86.4965 3.67469 86.0939 3.54886 85.6409 3.54886C85.2131 3.54886 84.8104 3.64953 84.4329 3.87602C84.0554 4.10251 83.7534 4.40451 83.527 4.83233C83.3005 5.26015 83.1746 5.7383 83.1746 6.29196C83.1746 6.84561 83.3005 7.34893 83.527 7.77675C83.7534 8.20457 84.0554 8.50657 84.4329 8.73306C84.8104 8.95956 85.2131 9.06022 85.6409 9.06022C86.0687 9.06022 86.4714 8.95956 86.874 8.73306C87.2515 8.50657 87.5535 8.17941 87.78 7.75159C88.0065 7.32376 88.1323 6.84561 88.1323 6.26679C88.1323 5.68797 88.0317 5.20982 87.78 4.80716Z" fill="white"/>
<path d="M1.53606 10.1675C1.25924 10.3688 1.18374 10.7463 1.3599 11.0232C1.53606 11.3252 1.93872 11.3755 2.26588 11.2497C2.6182 11.0987 5.05931 9.91586 6.74543 7.0721C6.16661 6.82044 5.58779 6.59395 5.03414 6.34229C4.25399 7.80191 3.07119 9.08538 1.53606 10.1675Z" fill="url(#paint0_linear_3628_982)"/>
<path d="M0.907047 10.1425C0.605055 10.671 0.781217 11.3253 1.3097 11.6021C1.56136 11.7531 1.86335 11.7783 2.11501 11.7028C2.19051 11.6776 2.26601 11.6524 2.31634 11.6273C2.94549 11.3253 3.9773 10.5451 6.29257 10.1928C6.31774 10.1928 6.31774 10.1928 6.34291 10.1928C8.30585 9.94114 10.3191 10.3186 12.3576 11.2498C12.6596 11.3756 13.0119 11.2749 13.1881 10.9729C13.3642 10.6458 13.2132 10.2935 12.9364 10.067C12.4834 9.68948 7.57604 6.39273 1.36003 9.66431C1.18387 9.81531 1.00771 9.94114 0.907047 10.1425Z" fill="url(#paint1_linear_3628_982)"/>
<path d="M12.711 11.7531C13.3149 11.7531 13.7931 11.2749 13.7679 10.671C13.7679 10.369 13.6421 10.1173 13.4659 9.91598C13.4156 9.86565 13.3653 9.81532 13.2898 9.76499C12.711 9.3875 11.5282 8.85901 10.0685 7.02189L10.0434 6.99672C8.86056 5.43643 8.15592 3.49865 7.95459 1.25887C7.92942 0.931714 7.62743 0.680054 7.30027 0.680054C6.94795 0.680054 6.69629 1.00721 6.64595 1.33437C6.57046 1.91319 6.1678 7.80204 12.107 11.5266C12.258 11.6776 12.4593 11.7531 12.711 11.7531Z" fill="url(#paint2_linear_3628_982)"/>
<path d="M8.1802 0.780695C7.8782 0.277375 7.22389 0.101213 6.6954 0.403205C6.44374 0.554201 6.26758 0.780695 6.21725 1.05752C6.19208 1.13302 6.19208 1.20852 6.19208 1.28402C6.14175 1.9635 6.29274 3.24696 5.46227 5.46157C5.46227 5.48674 5.46227 5.48674 5.4371 5.51191C5.31127 5.8139 5.16027 6.11589 5.00928 6.39272C5.56293 6.64438 6.14175 6.87087 6.72057 7.12253C7.57621 5.68807 8.23053 3.80062 8.30603 1.43501C8.35636 1.18335 8.30603 0.982023 8.1802 0.780695Z" fill="url(#paint3_linear_3628_982)"/>
<defs>
<linearGradient id="paint0_linear_3628_982" x1="7.68072" y1="3.57385" x2="2.45495" y2="11.0494" gradientUnits="userSpaceOnUse">
<stop stop-color="#FF4ADA"/>
<stop offset="1" stop-color="#6C60FF"/>
</linearGradient>
<linearGradient id="paint1_linear_3628_982" x1="1.16223" y1="10.0123" x2="13.0607" y2="10.0123" gradientUnits="userSpaceOnUse">
<stop offset="0.0108" stop-color="#6C60FF"/>
<stop offset="0.148" stop-color="#6A5EFB"/>
<stop offset="0.2934" stop-color="#6558EE"/>
<stop offset="0.4425" stop-color="#5B4DD9"/>
<stop offset="0.5941" stop-color="#4E3EBB"/>
<stop offset="0.7478" stop-color="#3E2C95"/>
<stop offset="0.901" stop-color="#2A1567"/>
<stop offset="1" stop-color="#1B0445"/>
</linearGradient>
<linearGradient id="paint2_linear_3628_982" x1="13.1393" y1="11.6343" x2="7.33017" y2="3.41218" gradientUnits="userSpaceOnUse">
<stop stop-color="#3DFB98"/>
<stop offset="0.0055" stop-color="#3DFB98"/>
<stop offset="1" stop-color="#6C60FF"/>
</linearGradient>
<linearGradient id="paint3_linear_3628_982" x1="7.08585" y1="3.15785" x2="1.86013" y2="10.6334" gradientUnits="userSpaceOnUse">
<stop stop-color="#FF4ADA"/>
<stop offset="1" stop-color="#6C60FF"/>
</linearGradient>
</defs>
</svg>
